Coordinates
version=1
nRows=7
nColumns=40
inDegrees=yes

Units are S.I. units (second, meters, Newtons, ...)
Angles are in degrees.

endheader
time	pelvis_tilt	pelvis_list	pelvis_rotation	pelvis_tx	pelvis_ty	pelvis_tz	hip_flexion_r	hip_adduction_r	hip_rotation_r	knee_angle_r	knee_angle_r_beta	ankle_angle_r	subtalar_angle_r	mtp_angle_r	hip_flexion_l	hip_adduction_l	hip_rotation_l	knee_angle_l	knee_angle_l_beta	ankle_angle_l	subtalar_angle_l	mtp_angle_l	lumbar_extension	lumbar_bending	lumbar_rotation	arm_flex_r	arm_add_r	arm_rot_r	elbow_flex_r	pro_sup_r	wrist_flex_r	wrist_dev_r	arm_flex_l	arm_add_l	arm_rot_l	elbow_flex_l	pro_sup_l	wrist_flex_l	wrist_dev_l
     15.77000000	     -1.41717439	     -5.80756171	      2.73976525	      0.88236788	      0.93477140	      0.48208562	      7.90508941	      5.58796287	    -18.96196656	     12.56466855	     12.56466855	      8.86884944	      2.70684703	     -4.79399215	     28.79434640	    -13.54447000	     -1.11605728	     57.73532172	     57.73532172	     13.21268937	    -19.09576813	     17.78174127	     -8.63669194	      7.83783248	      5.03922353	     21.51151795	    -15.81006561	    -10.08790487	     38.54777050	     45.55636676	      0.00000000	      0.00000000	      8.02670306	     -7.24394339	      3.18434568	     27.03429770	     44.98008237	      0.00000000	      0.00000000
     15.78235714	     -1.50732989	     -5.74724628	      3.00864462	      0.88108150	      0.93501485	      0.48257444	      7.15041039	      5.72488152	    -18.97856449	     11.77341430	     11.77341430	      8.96863535	      2.80391290	     -4.92837658	     29.80182352	    -13.31039490	     -1.23301305	     54.94398455	     54.94398455	     13.24753458	    -19.06464354	     17.65823119	     -8.55164323	      7.70397436	      4.92813604	     23.52317743	    -15.92141337	    -10.33075277	     39.97782036	     45.53311548	      0.00000000	      0.00000000	      6.38547797	     -7.07772279	      3.30352760	     26.39055932	     44.94688879	      0.00000000	      0.00000000
     15.79471429	     -1.64807748	     -5.61271847	      3.24179845	      0.87977855	      0.93510550	      0.48301508	      6.53266174	      5.74425321	    -18.98287934	     11.15397445	     11.15397445	      9.13689253	      2.89627795	     -5.06435183	     30.58624694	    -12.90891913	     -1.36224634	     51.77322229	     51.77322229	     13.16655840	    -19.00377422	     17.65223779	     -8.42969678	      7.43821833	      5.12925230	     25.35192633	    -16.24167925	    -10.50070829	     41.12778610	     45.51316935	      0.00000000	      0.00000000	      4.91226294	     -6.87190750	      3.42631284	     25.84083137	     44.90840882	      0.00000000	      0.00000000
     15.80707143	     -1.77171234	     -5.52410628	      3.47424471	      0.87851523	      0.93506372	      0.48330926	      5.92092328	      5.80432695	    -19.01479658	     10.56635383	     10.56635383	      9.30516346	      3.00507448	     -5.22230331	     31.17033056	    -12.43778253	     -1.32886514	     48.39860833	     48.39860833	     12.97963560	    -18.87213215	     17.67012949	     -8.29993921	      7.28978720	      5.29801843	     27.26561052	    -16.62924587	    -10.67879069	     42.31298337	     45.49219247	      0.00000000	      0.00000000	      3.41885647	     -6.63199622	      3.56651461	     25.28440366	     44.86416349	      0.00000000	      0.00000000
     15.81942857	     -1.74045765	     -5.50062282	      3.76816835	      0.87748525	      0.93505925	      0.48351686	      4.94297775	      5.98843686	    -19.27165514	      9.56276191	      9.56276191	      8.97770786	      3.39585321	     -6.62405974	     31.30828055	    -12.01783321	     -1.28388596	     44.60744215	     44.60744215	     11.66370116	    -18.67218473	     14.82082384	     -8.40826971	      7.24379926	      5.11208159	     28.87931494	    -16.62704841	    -11.17074314	     44.69422338	     45.45630792	      0.00000000	      0.00000000	      1.65283615	     -6.68772802	      4.47094204	     25.17873272	     44.71458037	      0.00000000	      0.00000000
     15.83178571	     -1.89333903	     -5.38573216	      3.99850981	      0.87625048	      0.93469752	      0.48353200	      4.47029671	      5.97421829	    -19.24941427	      9.18108583	      9.18108583	      9.25835958	      3.33467407	     -6.72001552	     31.63775942	    -11.33454190	     -0.93792176	     41.01792305	     41.01792305	     11.40305579	    -18.21649910	     15.13417479	     -8.27099844	      7.06569964	      5.36266670	     30.62117268	    -17.07104382	    -11.31270212	     45.62835124	     45.44175183	      0.00000000	      0.00000000	      0.33210523	     -6.47439311	      4.63948298	     24.66990741	     44.66838214	      0.00000000	      0.00000000
     15.84414286	     -1.90287874	     -5.41756987	      4.32108962	      0.87516654	      0.93432175	      0.48337806	      3.73511072	      6.15104559	    -19.45901292	      8.56801468	      8.56801468	      9.40002917	      3.57478604	     -7.04859762	     31.74773510	    -10.74680193	     -0.34350328	     37.40736321	     37.40736321	     10.77679696	    -17.57414676	     14.37538703	     -8.31013271	      7.09355226	      5.03462469	     32.45409344	    -17.00583685	    -11.53164335	     47.20779059	     45.41119911	      0.00000000	      0.00000000	     -1.21181915	     -6.40873948	      5.11916561	     24.16475429	     44.57151478	      0.00000000	      0.00000000
